<svg width="32" height="18" viewBox="0 0 32 18" fill="none" xmlns="http://www.w3.org/2000/svg">
<path d="M17.5833 7.41668H23.9167M28.6667 16.9167H3.33333C2.91341 16.9167 2.51068 16.7499 2.21375 16.4529C1.91681 16.156 1.75 15.7533 1.75 15.3333V2.66668C1.75 2.24675 1.91681 1.84402 2.21375 1.54709C2.51068 1.25016 2.91341 1.08334 3.33333 1.08334H28.6667C29.0866 1.08334 29.4893 1.25016 29.7863 1.54709C30.0832 1.84402 30.25 2.24675 30.25 2.66668V15.3333C30.25 15.7533 30.0832 16.156 29.7863 16.4529C29.4893 16.7499 29.0866 16.9167 28.6667 16.9167ZM23.9167 13.75H8.08333V16.9167H23.9167V13.75Z" stroke="#008C43" stroke-width="2" stroke-linecap="round" stroke-linejoin="round"/>
</svg>
