<svg width="21" height="21" viewBox="0 0 21 21" fill="none" xmlns="http://www.w3.org/2000/svg">
<g clip-path="url(#clip0_60_5)">
<path d="M2.45596 6.97852C2.75688 6.97852 3.05485 7.03786 3.33284 7.15316C3.61084 7.26846 3.86341 7.43746 4.07612 7.65049C4.28884 7.86352 4.45753 8.11642 4.57256 8.39473C4.68758 8.67303 4.74669 8.9713 4.74651 9.27248V12.7697H15.9246V9.27106C15.9249 8.84081 16.0461 8.41932 16.2745 8.05478C16.5028 7.69024 16.829 7.39737 17.2158 7.20965C17.6026 7.02194 18.0344 6.94695 18.4618 6.99327C18.8891 7.03959 19.2949 7.20534 19.6326 7.47158C19.9702 7.73782 20.2263 8.09379 20.3713 8.4988C20.5164 8.90381 20.5447 9.3415 20.4529 9.76183C20.3612 10.1822 20.1531 10.5682 19.8525 10.8757C19.5518 11.1833 19.1708 11.3999 18.753 11.5009V18.0995C18.7526 18.2787 18.6813 18.4506 18.5546 18.5773C18.428 18.7041 18.2563 18.7755 18.0772 18.7758H2.59539C2.41628 18.7755 2.24461 18.7041 2.11795 18.5773C1.9913 18.4506 1.91998 18.2787 1.91961 18.0995V11.5009C1.37356 11.3705 0.894391 11.0439 0.573102 10.5831C0.251813 10.1223 0.110778 9.55951 0.176779 9.00153C0.24278 8.44354 0.511221 7.92925 0.931124 7.55631C1.35103 7.18337 1.89457 6.97776 2.45596 6.97852ZM3.9626 5.70552C3.8568 5.6608 3.74904 5.62089 3.63965 5.58591V3.63084C3.6404 3.21275 3.80648 2.81195 4.10159 2.51605C4.3967 2.22015 4.79685 2.0532 5.21457 2.0517H15.4551C15.8731 2.05283 16.2736 2.21961 16.569 2.51555C16.8645 2.81149 17.0307 3.2125 17.0315 3.63084V5.58591C16.9221 5.62089 16.8143 5.6608 16.7085 5.70552C16.008 6.00163 15.4102 6.49799 14.9901 7.13246C14.5701 7.76694 14.3463 8.51134 14.3469 9.27248V11.1905H6.32428V9.27248C6.32429 8.51146 6.1003 7.7673 5.68029 7.13293C5.26027 6.49856 4.66284 6.00209 3.9626 5.70552Z" fill="black"/>
</g>
<defs>
<clipPath id="clip0_60_5">
<rect width="20" height="20" fill="white" transform="translate(0.333252 0.5)"/>
</clipPath>
</defs>
</svg>
