<svg width="18" height="18" viewBox="0 0 18 18" fill="none" xmlns="http://www.w3.org/2000/svg">
<path d="M16.4858 10.5421C16.4858 11.6916 16.0092 12.8131 15.1681 13.6262C14.327 14.4393 13.2055 14.8879 12.0559 14.8598H9.89705C9.30827 14.8598 8.74752 15.1122 8.355 15.5327L7.20547 16.7383C7.03724 16.9346 6.7849 17.0187 6.53257 17.0187C6.28023 17.0187 6.0279 16.9065 5.85967 16.7383L4.09332 14.8879L3.50453 14.243C3.39238 14.1308 3.28023 14.0187 3.16808 13.9346C2.1307 13.1215 1.54191 11.8879 1.54191 10.5701V5.29907C1.54191 2.88785 3.53257 0.925236 5.94378 0.953273H12.0559C14.4952 0.925236 16.4578 2.88785 16.4858 5.29907V10.5421Z" stroke="#9A9A9A" stroke-miterlimit="10"/>
<path d="M14.355 7.93458C14.355 7.3458 13.8783 6.86916 13.2896 6.86916C12.7008 6.86916 12.2241 7.3458 12.2241 7.93458C12.2241 8.52337 12.7008 9 13.2896 9C13.5699 9 13.8503 8.88785 14.0466 8.69159C14.2428 8.46729 14.355 8.21495 14.355 7.93458Z" stroke="#9A9A9A" stroke-miterlimit="10"/>
<path d="M10.0654 7.93458C10.0654 7.3458 9.58879 6.86916 9.00001 6.86916C8.41122 6.86916 7.93459 7.3458 7.93459 7.93458C7.93459 8.52337 8.41122 9 9.00001 9C9.58879 9 10.0654 8.52337 10.0654 7.93458Z" stroke="#9A9A9A" stroke-miterlimit="10"/>
<path d="M5.80371 7.93458C5.80371 7.3458 5.32708 6.86916 4.73829 6.86916C4.14951 6.86916 3.67287 7.3458 3.67287 7.93458C3.67287 8.52337 4.14951 9 4.73829 9C5.32708 9 5.80371 8.52337 5.80371 7.93458Z" stroke="#9A9A9A" stroke-miterlimit="10"/>
</svg>
