<svg width="24" height="24" viewBox="0 0 24 24" fill="none" xmlns="http://www.w3.org/2000/svg">
<path d="M5.25 0H18.75C19.3467 0 19.919 0.237063 20.341 0.659019C20.763 1.08098 21 1.65326 21 2.25V24H3V2.25C3 1.65326 3.23704 1.08098 3.659 0.659019C4.08095 0.237063 4.65326 0 5.25 0ZM13.5 22.5V18H10.5V22.5H13.5ZM4.5 22.5H9V17.25C9 17.0511 9.07903 16.8603 9.21968 16.7197C9.36033 16.579 9.55109 16.5 9.75 16.5H14.25C14.4489 16.5 14.6397 16.579 14.7803 16.7197C14.921 16.8603 15 17.0511 15 17.25V22.5H19.5V2.25C19.5 2.05109 19.421 1.86033 19.2803 1.71968C19.1397 1.57903 18.9489 1.5 18.75 1.5H5.25C5.05109 1.5 4.86033 1.57903 4.71968 1.71968C4.57903 1.86033 4.5 2.05109 4.5 2.25V22.5ZM16.5 4.5H13.5V7.5H16.5V4.5ZM10.5 4.5H7.5V7.5H10.5V4.5ZM16.5 10.5H13.5V13.5H16.5V10.5ZM10.5 10.5H7.5V13.5H10.5V10.5Z" fill="#9A9A9A"/>
</svg>
