<?xml version="1.0" encoding="UTF-8"?>
<svg id="Layer_1" data-name="Layer 1" xmlns="http://www.w3.org/2000/svg" viewBox="0 0 28 28">
  <defs>
    <style>
      .cls-1 {
        fill: #008c43;
      }
    </style>
  </defs>
  <polygon class="cls-1" points=".48 4.59 20.76 4.59 20.76 3.14 2.41 3.14 .48 4.59"/>
  <polygon class="cls-1" points="22.21 3.14 22.21 4.59 27.03 4.59 25.1 3.14 22.21 3.14"/>
  <polygon class="cls-1" points="20.76 6.52 20.76 5.07 2.41 5.07 .48 6.52 20.76 6.52"/>
  <polygon class="cls-1" points="22.21 5.07 22.21 6.52 27.03 6.52 25.1 5.07 22.21 5.07"/>
  <polygon class="cls-1" points="20.76 8.45 20.76 7 2.41 7 .48 8.45 20.76 8.45"/>
  <polygon class="cls-1" points="22.21 7 22.21 8.45 27.03 8.45 25.1 7 22.21 7"/>
  <polygon class="cls-1" points="22.21 8.93 22.21 10.38 27.03 10.38 25.1 8.93 22.21 8.93"/>
  <polygon class="cls-1" points="20.76 10.38 20.76 8.93 2.41 8.93 .48 10.38 20.76 10.38"/>
  <polygon class="cls-1" points="20.76 12.31 20.76 10.86 2.41 10.86 .48 12.31 20.76 12.31"/>
  <polygon class="cls-1" points="22.21 10.86 22.21 12.31 27.03 12.31 25.1 10.86 22.21 10.86"/>
  <polygon class="cls-1" points="20.76 14.24 20.76 12.79 2.41 12.79 .48 14.24 20.76 14.24"/>
  <polygon class="cls-1" points="22.21 12.79 22.21 14.24 27.03 14.24 25.1 12.79 22.21 12.79"/>
  <polygon class="cls-1" points="20.76 16.17 20.76 14.72 2.41 14.72 .48 16.17 20.76 16.17"/>
  <polygon class="cls-1" points="22.21 14.72 22.21 16.17 27.03 16.17 25.1 14.72 22.21 14.72"/>
  <polygon class="cls-1" points="20.76 18.1 20.76 16.66 2.41 16.66 .48 18.1 20.76 18.1"/>
  <polygon class="cls-1" points="22.21 16.66 22.21 18.1 27.03 18.1 25.1 16.66 22.21 16.66"/>
  <polygon class="cls-1" points="22.21 18.59 22.21 20.03 27.03 20.03 25.1 18.59 22.21 18.59"/>
  <polygon class="cls-1" points="20.76 20.03 20.76 18.59 2.41 18.59 .48 20.03 20.76 20.03"/>
  <polygon class="cls-1" points="22.21 20.52 22.21 21.97 27.03 21.97 25.1 20.52 22.21 20.52"/>
  <polygon class="cls-1" points="20.76 21.97 20.76 20.52 2.41 20.52 .48 21.97 20.76 21.97"/>
  <path class="cls-1" d="m20.38,23.9c.08-.19.22-.35.38-.48v-.97H2.41l-1.93,1.45h19.9Z"/>
  <path class="cls-1" d="m22.21,22.45v.97c.16.12.3.29.38.48h4.45l-1.93-1.45h-2.9Z"/>
  <path class="cls-1" d="m22.69,24.38c0,.67-.54,1.21-1.21,1.21s-1.21-.54-1.21-1.21H2.41l-1.93,1.45h26.55l-1.93-1.45h-2.41Z"/>
  <polygon class="cls-1" points="2.41 26.31 .48 27.76 27.03 27.76 25.1 26.31 2.41 26.31"/>
  <path class="cls-1" d="m21.72,23.2V3.14h-.48v20.06c.08-.02.16-.02.24-.02s.16,0,.24.02Z"/>
  <polygon class="cls-1" points="0 2.66 20.76 2.66 21.24 2.66 21.72 2.66 22.21 2.66 28 2.66 28 .24 0 .24 0 2.66"/>
  <path class="cls-1" d="m20.95,23.9c-.12.13-.19.3-.19.48,0,.4.32.72.72.72s.72-.32.72-.72c0-.19-.07-.35-.19-.48-.08-.09-.18-.16-.29-.2-.08-.03-.16-.04-.24-.04s-.17.02-.24.04c-.11.04-.21.11-.29.2Z"/>
</svg>