<?xml version="1.0" encoding="UTF-8"?>
<svg id="Layer_1" data-name="Layer 1" xmlns="http://www.w3.org/2000/svg" viewBox="0 0 28 28">
  <defs>
    <style>
      .cls-1 {
        fill: #008c43;
      }
    </style>
  </defs>
  <path class="cls-1" d="m22.82,1.81c-.1-.25-.46-.5-.73-.5H5.88c-.27,0-.63.25-.73.5L1.33,11.48c-.02.05-.02.06-.03.04,0-.01,8.44-.02,25.33-.02.02.02-1.25-3.2-3.81-9.69h0Zm5.03,9.19c.37.93-.23,1.8-1.22,1.8H1.34c-1,0-1.59-.87-1.22-1.8L3.94,1.33C4.23.58,5.07.01,5.88.01h16.21c.81,0,1.65.57,1.94,1.32l3.82,9.67h0Z"/>
  <path class="cls-1" d="m0,11.6v15.74C0,27.7.29,27.99.65,27.99s.65-.29.65-.65v-15.74c0-.36-.29-.65-.65-.65S0,11.24,0,11.6Zm26.7.07v15.67c0,.36.29.65.65.65s.65-.29.65-.65v-15.67c0-.36-.29-.65-.65-.65s-.65.29-.65.65Zm-22.08,3.1v7.25c0,.36.29.65.65.65s.65-.29.65-.65v-7.25c0-.36-.29-.65-.65-.65s-.65.29-.65.65h0Zm17.6,0v7.25c0,.36.29.65.65.65s.65-.29.65-.65v-7.25c0-.36-.29-.65-.65-.65s-.65.29-.65.65h0Z"/>
</svg>