<svg width="22" height="22" viewBox="0 0 22 22" fill="none" xmlns="http://www.w3.org/2000/svg">
<path d="M3.68695 9.17174V6.42936C3.68695 5.42382 4.50966 4.60111 5.5152 4.60111H16.4847C17.4903 4.60111 18.313 5.42382 18.313 6.42936V9.17174M3.68695 9.17174V17.3989C3.68695 18.4044 4.50966 19.2271 5.5152 19.2271H16.4847C17.4903 19.2271 18.313 18.4044 18.313 17.3989V9.17174M3.68695 9.17174H18.313M14.6565 2.77285V6.42936M7.34346 2.77285V6.42936" stroke="#9A9A9A" stroke-miterlimit="133.333" stroke-linecap="round"/>
<path d="M16.0278 11H14.1995C13.9558 11 13.7425 11.2133 13.7425 11.4571V13.2853C13.7425 13.5291 13.9558 13.7424 14.1995 13.7424H16.0278C16.2716 13.7424 16.4849 13.5291 16.4849 13.2853V11.4571C16.4849 11.2133 16.2716 11 16.0278 11Z" fill="#9A9A9A"/>
<path d="M11.914 11H10.0858C9.84201 11 9.62871 11.2133 9.62871 11.4571V13.2853C9.62871 13.5291 9.84201 13.7424 10.0858 13.7424H11.914C12.1578 13.7424 12.3711 13.5291 12.3711 13.2853V11.4571C12.3711 11.2133 12.1578 11 11.914 11Z" fill="#9A9A9A"/>
<path d="M7.80075 11H5.97249C5.72873 11 5.51543 11.2133 5.51543 11.4571V13.2853C5.51543 13.5291 5.72873 13.7424 5.97249 13.7424H7.80075C8.04452 13.7424 8.25781 13.5291 8.25781 13.2853V11.4571C8.25781 11.2133 8.04452 11 7.80075 11Z" fill="#9A9A9A"/>
</svg>
