<svg width="13" height="20" viewBox="0 0 13 20" fill="none" xmlns="http://www.w3.org/2000/svg">
<path d="M6.95972 8.71667C4.28389 8.02833 3.42338 7.31667 3.42338 6.20833C3.42338 4.93667 4.61395 4.05 6.60609 4.05C8.70432 4.05 9.48232 5.04167 9.55304 6.5H12.1582C12.0756 4.49333 10.8379 2.65 8.37426 2.055V-0.5H4.83792V2.02C2.55108 2.51 0.712181 3.98 0.712181 6.23167C0.712181 8.92667 2.96365 10.2683 6.25246 11.05C9.19941 11.75 9.7888 12.7767 9.7888 13.8617C9.7888 14.6667 9.2112 15.95 6.60609 15.95C4.1778 15.95 3.22299 14.8767 3.09332 13.5H0.5C0.641454 16.055 2.57466 17.49 4.83792 17.9683V20.5H8.37426V17.9917C10.6729 17.56 12.5 16.2417 12.5 13.85C12.5 10.5367 9.63556 9.405 6.95972 8.71667Z" fill="#008C43"/>
</svg>
