<?xml version="1.0" encoding="UTF-8"?>
<svg id="Layer_1" data-name="Layer 1" xmlns="http://www.w3.org/2000/svg" viewBox="0 0 28 28">
  <defs>
    <style>
      .cls-1 {
        fill: #008c43;
        fill-rule: evenodd;
      }
    </style>
  </defs>
  <path class="cls-1" d="m27.86,5.76c0-.55-.44-.99-.99-.99H1.13c-.55,0-.99.44-.99.99v13.86c0,.55.44.99.99.99h25.75c.55,0,.99-.44.99-.99V5.76Zm-1.98.99v11.88H2.12V6.75h23.77Z"/>
  <path class="cls-1" d="m17.47,22.74v-3.11c0-.27-.22-.5-.5-.5h-5.94c-.27,0-.5.22-.5.5v3.11c0,.27.22.5.5.5s.5-.22.5-.5v-2.62h4.95v2.62c0,.27.22.5.5.5s.5-.22.5-.5Z"/>
  <path class="cls-1" d="m4.59,23.23h18.81c.27,0,.5-.22.5-.5s-.22-.5-.5-.5H4.59c-.27,0-.5.22-.5.5s.22.5.5.5Z"/>
</svg>