<svg width="22" height="22" viewBox="0 0 22 22" fill="none" xmlns="http://www.w3.org/2000/svg">
<path d="M19.1626 4.05322H2.88214C1.75624 4.05322 0.833008 4.97646 0.833008 6.10235V15.8976C0.833008 17.0235 1.75624 17.9468 2.88214 17.9468H19.1176C20.2434 17.9468 21.1667 17.0235 21.1667 15.8976V6.10235C21.1442 4.97646 20.266 4.07574 19.1626 4.05322ZM7.20558 5.89969C8.64672 5.89969 9.81765 7.07062 9.81765 8.51177C9.81765 9.95292 8.62421 11.1013 7.20558 11.1013C5.78695 11.1013 4.5935 9.9304 4.5935 8.48925C4.5935 7.07062 5.76443 5.89969 7.20558 5.89969ZM10.5607 15.5824H3.87293C3.28746 15.5824 3.19739 15.1996 3.19739 15.042C3.4676 13.0829 5.13393 11.6418 7.09299 11.6418H7.22809C9.18715 11.6418 10.876 13.0829 11.1237 15.042C11.2363 15.2221 11.1462 15.5824 10.5607 15.5824ZM18.4645 13.218C18.4645 13.6008 18.1493 13.8936 17.789 13.8936H14.7716C14.3888 13.8936 14.0961 13.5783 14.0961 13.218V12.1822C14.0961 11.7994 14.4113 11.5067 14.7716 11.5067H17.789C18.1718 11.5067 18.4645 11.8219 18.4645 12.1822V13.218ZM18.4645 9.45752C18.4645 9.84033 18.1493 10.1331 17.789 10.1331H12.7225C12.3397 10.1331 12.0469 9.81781 12.0469 9.45752V8.4217C12.0469 8.03889 12.3622 7.74616 12.7225 7.74616H17.789C18.1718 7.74616 18.4645 8.06141 18.4645 8.4217V9.45752Z" fill="#9A9A9A"/>
</svg>
