<svg width="15" height="15" viewBox="0 0 15 15" fill="none" xmlns="http://www.w3.org/2000/svg">
<path d="M14.6608 1.875H9.375V3.59654H11.1237V4.76827H9.375V5.91346H11.1058V7.06731H9.375V8.22115H11.1058V9.375H9.375V10.5288H11.1058V11.6827H9.375V13.4135H14.6608C14.9267 13.4135 15.1442 13.1879 15.1442 12.9115V2.37692C15.1442 2.10058 14.9267 1.875 14.6608 1.875ZM13.9904 11.6827H11.6827V10.5288H13.9904V11.6827ZM13.9904 9.375H11.6827V8.22115H13.9904V9.375ZM13.9904 7.06731H11.6827V5.91346H13.9904V7.06731ZM13.9904 4.75962H11.6827V3.60577H13.9904V4.75962Z" fill="#008C43"/>
<path d="M0 1.66673V13.3338L8.65385 15V0L0 1.66673ZM5.47385 10.4308L4.46712 8.5275C4.42904 8.45654 4.38981 8.32615 4.34885 8.13635H4.33327C4.31423 8.22577 4.26923 8.36192 4.19827 8.54423L3.18808 10.4308H1.61942L3.48173 7.50923L1.77808 4.58712H3.37962L4.215 6.33923C4.28019 6.47769 4.33846 6.64212 4.39038 6.83192H4.40654C4.43942 6.71769 4.50058 6.54808 4.59 6.3225L5.51885 4.58654H6.98538L5.23327 7.48385L7.03442 10.4302L5.47385 10.4308Z" fill="#008C43"/>
</svg>
