<svg width="28" height="28" viewBox="0 0 28 28" fill="none" xmlns="http://www.w3.org/2000/svg">
<path d="M26.8571 10.5547C26.179 9.87716 25.2952 9.48068 24.3467 9.4214C24.1259 7.01105 23.0765 4.7682 21.347 3.04106C19.385 1.08002 16.7758 0 14 0C11.2625 0 8.67876 1.05465 6.72466 2.96964C4.95153 4.70728 3.87699 6.97561 3.65339 9.42145C1.61725 9.55019 0 11.2452 0 13.3114V22.5859C0 23.7999 0.854219 24.8177 1.9934 25.0721V27.2651C1.9934 27.6709 2.3228 28 2.72895 28H5.59764C6.00384 28 6.33319 27.6709 6.33319 27.2651V25.1339H7.06874H20.9313H21.6668V27.2651C21.6668 27.6709 21.9962 28 22.4024 28H25.2711C25.6773 28 26.0066 27.6709 26.0066 27.2651V25.072C27.1457 24.8177 28 23.7999 28 22.5859V13.3114C28.0001 12.2702 27.5942 11.2911 26.8571 10.5547ZM4.86209 26.5302H3.4645V25.1338H4.86209V26.5302ZM6.33319 16.0203V20.21V23.664H5.59764H2.72895H2.54947C1.95481 23.664 1.4711 23.1804 1.4711 22.5859V13.3114C1.4711 11.9721 2.56167 10.8825 3.90217 10.8825C4.01876 10.8825 4.13261 10.8905 4.24559 10.907C4.7686 10.9799 5.2442 11.2174 5.62112 11.594C6.08036 12.0527 6.33324 12.6627 6.33324 13.3114L6.33319 16.0203ZM20.1957 20.21V23.664H7.80434V20.9449H15.3976C15.8038 20.9449 16.1332 20.6158 16.1332 20.21C16.1332 19.8041 15.8038 19.4751 15.3976 19.4751H7.80434V16.7552H20.1957V20.21ZM20.1957 13.3114V15.2853H7.80434V13.3114C7.80434 12.2701 7.39836 11.2911 6.66144 10.5546C6.22716 10.1207 5.69228 9.79579 5.11497 9.60641C5.51197 5.06882 9.37966 1.46984 14 1.46984C16.3828 1.46984 18.6224 2.39684 20.3068 4.0804C21.8032 5.57479 22.706 7.51871 22.8857 9.60608C21.3135 10.121 20.1957 11.61 20.1957 13.3114ZM24.5356 26.5302H23.138V25.1338H24.5356V26.5302ZM26.529 22.5859H26.529C26.529 23.1804 26.0452 23.664 25.4506 23.664H25.2712H22.4025H21.6669V20.21V16.0203V13.3114C21.6669 12.1072 22.5646 11.0736 23.7596 10.9063C23.8675 10.8905 23.9814 10.8825 24.098 10.8825C24.7472 10.8825 25.3576 11.1352 25.8169 11.5941C26.2761 12.053 26.5291 12.6628 26.5291 13.3114V22.5859H26.529Z" fill="#008C43"/>
</svg>
