<svg width="20" height="21" viewBox="0 0 20 21" fill="none" xmlns="http://www.w3.org/2000/svg">
<path d="M10 0.5C10.2208 0.5 10.4297 0.532941 10.6289 0.59668C10.7784 0.644547 10.9257 0.71042 11.0703 0.796875L11.2139 0.889648L18.708 6.28613L18.7119 6.28906C18.9583 6.46255 19.1504 6.68058 19.291 6.94922V6.9502C19.431 7.21954 19.5 7.50082 19.5 7.7998V18.5996C19.5 19.1191 19.3139 19.5555 18.9199 19.9346C18.5244 20.3136 18.0604 20.5 17.5 20.5H13V12.0996H7V20.5H2.5C1.93958 20.5 1.47567 20.3134 1.08105 19.9346C0.686235 19.5554 0.5 19.1189 0.5 18.5996V7.7998C0.50003 7.50124 0.56942 7.22038 0.709961 6.95117V6.9502C0.849791 6.68119 1.04133 6.46278 1.28809 6.28906L1.29199 6.28613L8.78613 0.889648C8.97683 0.756517 9.17186 0.660455 9.37109 0.59668C9.57028 0.532941 9.77923 0.5 10 0.5Z" fill="#008C43" stroke="#008C43"/>
</svg>
