<svg width="54" height="74" viewBox="0 0 54 74" fill="none" xmlns="http://www.w3.org/2000/svg">
<path d="M45.8992 18.1084C40.1967 12.2363 34.3033 6.55127 28.5365 0.73702C27.5408 -0.261746 26.8843 -0.239 25.8951 0.766228C20.3705 6.36361 14.8619 11.9775 9.208 17.4426C3.02382 23.4184 0.0270043 30.5348 0.560645 39.1769C0.922611 45.0686 2.9204 50.2589 6.99045 54.4765C13.0875 60.7917 19.3878 66.9063 25.5624 73.1471C26.5128 74.1102 27.0105 73.8031 27.7024 72.908C31.6592 67.7919 31.2843 60.5265 26.6873 55.7563C23.6616 52.615 20.5518 49.5509 17.442 46.4939C14.9335 44.0246 13.6532 41.019 13.5045 37.5546C13.4495 36.3168 13.7403 35.0662 13.9247 33.3693C14.8459 34.1709 15.386 34.5878 15.8612 35.0629C23.7166 42.9034 31.5625 50.7505 39.4084 58.5972C40.1033 59.292 40.7337 60.1388 41.7779 59.0335C43.8856 56.8034 46.2389 54.7642 48.0979 52.3469C56.0601 41.9889 55.1321 27.6101 45.8997 18.1087L45.8992 18.1084ZM39.9058 40.1852C39.1881 39.6227 38.7873 39.3674 38.4574 39.0412C33.4499 34.0737 28.478 29.0773 23.4348 24.1455C22.3843 23.1178 22.2871 22.3808 23.4446 21.4208C24.3951 20.6356 25.2516 19.7306 26.1149 18.8451C26.7517 18.1922 27.3177 18.0534 28.0222 18.7706C31.1483 21.9605 34.452 24.992 37.3971 28.3401C40.2613 31.5977 40.9886 35.5375 39.9058 40.1849V40.1852Z" fill="#008C43"/>
</svg>
