<svg width="152" height="142" viewBox="0 0 152 142" fill="none" xmlns="http://www.w3.org/2000/svg">
<path d="M94.8992 32.1084C89.1967 26.2363 83.3033 20.5513 77.5365 14.737C76.5408 13.7383 75.8843 13.761 74.8951 14.7662C69.3705 20.3636 63.8619 25.9775 58.208 31.4426C52.0238 37.4184 49.027 44.5348 49.5606 53.1769C49.9226 59.0686 51.9204 64.2589 55.9904 68.4765C62.0875 74.7917 68.3878 80.9063 74.5624 87.1471C75.5128 88.1102 76.0105 87.8031 76.7024 86.908C80.6592 81.7919 80.2843 74.5265 75.6873 69.7563C72.6616 66.615 69.5518 63.5509 66.442 60.4939C63.9335 58.0246 62.6532 55.019 62.5045 51.5546C62.4495 50.3168 62.7403 49.0662 62.9247 47.3693C63.8459 48.1709 64.386 48.5878 64.8612 49.0629C72.7166 56.9034 80.5625 64.7505 88.4084 72.5972C89.1033 73.292 89.7337 74.1388 90.7779 73.0335C92.8856 70.8034 95.2389 68.7642 97.0979 66.3469C105.06 55.9889 104.132 41.6101 94.8997 32.1087L94.8992 32.1084ZM88.9058 54.1852C88.1881 53.6227 87.7873 53.3674 87.4574 53.0412C82.4499 48.0737 77.478 43.0773 72.4348 38.1455C71.3843 37.1178 71.2871 36.3808 72.4446 35.4208C73.3951 34.6356 74.2516 33.7306 75.1149 32.8451C75.7517 32.1922 76.3177 32.0534 77.0222 32.7706C80.1483 35.9605 83.452 38.992 86.3971 42.3401C89.2613 45.5977 89.9886 49.5375 88.9058 54.1849V54.1852Z" fill="#008C43"/>
<path d="M18.0356 101.65C18.5197 101.483 19.034 101.438 19.9415 101.438H23.5113C23.5567 101.635 23.5869 101.877 23.5869 102.134C23.5869 102.376 23.5567 102.603 23.5113 102.83H19.7295V104.872H23.0272C23.0726 105.038 23.0877 105.265 23.0877 105.568C23.0877 105.87 23.0726 106.097 23.0272 106.263H19.7295V109.561C19.533 109.652 19.2152 109.697 18.7765 109.697C18.5799 109.697 18.368 109.682 18.1563 109.652C18.1412 106.687 18.0958 104.025 18.0353 101.65H18.0356Z" fill="black"/>
<path d="M31.3319 109.455C30.8629 109.652 30.152 109.788 29.6679 109.743L28.9873 107.685H25.8562L25.1906 109.743C24.7216 109.758 24.0712 109.652 23.6023 109.455L26.3856 101.453C26.7185 101.408 27.0814 101.378 27.4747 101.378C27.8681 101.378 28.231 101.408 28.5639 101.453L31.3321 109.455H31.3319ZM28.5485 106.369L27.3989 102.86L26.2644 106.369H28.5485Z" fill="black"/>
<path d="M32.6024 108.638C31.9067 107.852 31.5587 106.808 31.5587 105.522C31.5587 102.799 33.1017 101.226 35.7033 101.226C36.7017 101.226 37.5033 101.423 38.1235 101.816C38.0479 102.3 37.836 102.799 37.5487 103.162C36.989 102.844 36.3537 102.678 35.6126 102.678C34.947 102.678 34.3722 102.784 33.9033 103.011C33.4797 103.692 33.268 104.539 33.268 105.522C33.268 107.292 34.1454 108.381 35.8245 108.381C36.5354 108.381 37.1405 108.215 37.6548 107.867C37.8816 108.215 38.1086 108.774 38.1842 109.137C37.5338 109.576 36.611 109.818 35.5823 109.818C34.2815 109.818 33.2831 109.424 32.6024 108.638V108.638Z" fill="black"/>
<path d="M39.228 101.62C39.7726 101.423 40.3323 101.332 40.9222 101.362V109.561C40.7257 109.652 40.4079 109.697 39.9692 109.697C39.7726 109.697 39.5607 109.682 39.349 109.652C39.3339 106.687 39.2885 104.009 39.228 101.62Z" fill="black"/>
<path d="M42.6464 109.606C42.6313 106.657 42.5859 103.994 42.5255 101.62C43.07 101.423 43.6297 101.332 44.2196 101.362V108.23H47.8651C47.9104 108.396 47.9256 108.623 47.9256 108.911C47.9256 109.198 47.9104 109.44 47.8651 109.606H42.6464Z" fill="black"/>
<path d="M48.924 101.62C49.4686 101.423 50.0282 101.332 50.6182 101.362V109.561C50.4216 109.652 50.1038 109.697 49.6651 109.697C49.4686 109.697 49.2566 109.682 49.0449 109.652C49.0298 106.687 48.9845 104.009 48.924 101.62Z" fill="black"/>
<path d="M54.2485 102.83H51.7376C51.6922 102.663 51.6771 102.421 51.6771 102.134C51.6771 101.831 51.6922 101.604 51.7376 101.438H58.4236C58.469 101.635 58.4992 101.877 58.4992 102.134C58.4992 102.376 58.469 102.603 58.4236 102.83H55.9127V109.561C55.7162 109.652 55.3984 109.697 54.9596 109.697C54.7631 109.697 54.5512 109.682 54.3395 109.652C54.3244 106.868 54.2941 104.599 54.2488 102.83H54.2485Z" fill="black"/>
<path d="M59.4823 101.62C60.0269 101.423 60.5866 101.332 61.1765 101.362V109.561C60.9799 109.652 60.6621 109.697 60.2234 109.697C60.0269 109.697 59.8149 109.682 59.6032 109.652C59.5881 106.687 59.5428 104.009 59.4823 101.62Z" fill="black"/>
<path d="M62.9009 109.606C62.8858 106.657 62.8404 104.009 62.78 101.65C63.264 101.483 63.7784 101.438 64.6858 101.438H68.3464C68.3917 101.635 68.422 101.877 68.422 102.134C68.422 102.376 68.3917 102.603 68.3464 102.83H64.4739V104.826H67.8472C67.8925 104.993 67.9076 105.205 67.9076 105.492C67.9076 105.779 67.8925 106.006 67.8472 106.173H64.4739V108.23H68.4825C68.5278 108.427 68.5581 108.654 68.5581 108.911C68.5581 109.153 68.5278 109.38 68.4825 109.606H62.9007H62.9009Z" fill="black"/>
<path d="M70.1615 109.152C70.2069 108.714 70.4035 108.094 70.6456 107.776C71.2053 108.154 72.2491 108.396 73.0961 108.396C73.6558 108.396 74.0945 108.321 74.3969 108.185C74.533 108.018 74.6086 107.791 74.6086 107.504C74.6086 106.974 74.3062 106.687 73.3834 106.369L72.5059 106.052C71.0385 105.522 70.3276 104.872 70.3276 103.722C70.3276 102.164 71.5226 101.211 73.4741 101.211C74.4271 101.211 75.3044 101.423 75.9548 101.801C75.8792 102.285 75.6675 102.784 75.4102 103.132C74.8354 102.814 74.1396 102.648 73.3377 102.648C72.8839 102.648 72.5059 102.693 72.1881 102.799C72.0369 102.951 71.9613 103.162 71.9613 103.435C71.9613 103.964 72.2335 104.251 73.0958 104.554L73.9582 104.872C75.5163 105.401 76.2423 106.082 76.2423 107.216C76.2423 108.971 74.9868 109.818 72.9446 109.818C71.795 109.818 70.7512 109.561 70.1613 109.153L70.1615 109.152Z" fill="black"/>
<path d="M80.0694 109.152C80.1148 108.714 80.3113 108.094 80.5535 107.776C81.1132 108.154 82.157 108.396 83.004 108.396C83.5637 108.396 84.0024 108.321 84.3048 108.185C84.4409 108.018 84.5165 107.791 84.5165 107.504C84.5165 106.974 84.2138 106.687 83.2912 106.369L82.4138 106.052C80.9464 105.522 80.2355 104.872 80.2355 103.722C80.2355 102.164 81.4305 101.211 83.3817 101.211C84.3348 101.211 85.212 101.423 85.8624 101.801C85.7868 102.285 85.5749 102.784 85.3178 103.132C84.743 102.814 84.0472 102.648 83.2454 102.648C82.7915 102.648 82.4135 102.693 82.0958 102.799C81.9446 102.951 81.869 103.162 81.869 103.435C81.869 103.964 82.1411 104.251 83.0035 104.554L83.8655 104.872C85.4237 105.401 86.1497 106.082 86.1497 107.216C86.1497 108.971 84.8942 109.818 82.852 109.818C81.7024 109.818 80.6586 109.561 80.0687 109.153L80.0694 109.152Z" fill="black"/>
<path d="M87.5722 109.606C87.5571 106.657 87.5117 104.009 87.4513 101.65C87.9354 101.483 88.4497 101.438 89.3571 101.438H93.0177C93.0631 101.635 93.0933 101.877 93.0933 102.134C93.0933 102.376 93.0631 102.603 93.0177 102.83H89.1452V104.826H92.5185C92.5638 104.993 92.579 105.205 92.579 105.492C92.579 105.779 92.5638 106.006 92.5185 106.173H89.1452V108.23H93.1538C93.1991 108.427 93.2294 108.654 93.2294 108.911C93.2294 109.153 93.1991 109.38 93.1538 109.606H87.572H87.5722Z" fill="black"/>
<path d="M94.3792 101.589C95.2111 101.393 96.1793 101.287 97.2835 101.287C99.2804 101.287 100.475 102.209 100.475 103.828C100.475 105.023 99.825 105.794 98.5544 106.112L100.975 109.41C100.49 109.591 99.6738 109.712 99.2048 109.667L96.9509 106.369H96.0737V109.561C95.8771 109.652 95.5594 109.697 95.1206 109.697C94.9241 109.697 94.7121 109.682 94.5004 109.652C94.4853 106.702 94.44 104.025 94.3795 101.589H94.3792ZM97.2835 105.068C97.7828 105.068 98.1912 104.993 98.5088 104.857C98.7053 104.63 98.796 104.297 98.796 103.858C98.796 103.072 98.191 102.663 97.1018 102.663C96.5724 102.663 96.179 102.694 96.0732 102.709V105.068H97.2833H97.2835Z" fill="black"/>
<path d="M107.327 101.362C107.796 101.347 108.447 101.453 108.916 101.65L106.057 109.576C105.755 109.622 105.422 109.652 105.058 109.652C104.695 109.652 104.363 109.622 104.045 109.576L101.186 101.65C101.655 101.453 102.366 101.317 102.85 101.362L105.134 107.942L107.327 101.362Z" fill="black"/>
<path d="M109.838 101.62C110.383 101.423 110.943 101.332 111.533 101.362V109.561C111.336 109.652 111.018 109.697 110.58 109.697C110.383 109.697 110.171 109.682 109.959 109.652C109.944 106.687 109.899 104.009 109.838 101.62Z" fill="black"/>
<path d="M113.877 108.638C113.181 107.852 112.833 106.808 112.833 105.522C112.833 102.799 114.376 101.226 116.978 101.226C117.977 101.226 118.778 101.423 119.398 101.816C119.323 102.3 119.111 102.799 118.823 103.162C118.264 102.844 117.629 102.678 116.887 102.678C116.222 102.678 115.647 102.784 115.178 103.011C114.754 103.692 114.543 104.539 114.543 105.522C114.543 107.292 115.42 108.381 117.099 108.381C117.81 108.381 118.415 108.215 118.929 107.867C119.156 108.215 119.383 108.774 119.459 109.137C118.808 109.576 117.886 109.818 116.857 109.818C115.556 109.818 114.558 109.424 113.877 108.638L113.877 108.638Z" fill="black"/>
<path d="M120.624 109.606C120.608 106.657 120.563 104.009 120.503 101.65C120.987 101.483 121.501 101.438 122.408 101.438H126.069C126.114 101.635 126.145 101.877 126.145 102.134C126.145 102.376 126.114 102.603 126.069 102.83H122.197V104.826H125.57C125.615 104.993 125.63 105.205 125.63 105.492C125.63 105.779 125.615 106.006 125.57 106.173H122.197V108.23H126.205C126.25 108.427 126.281 108.654 126.281 108.911C126.281 109.153 126.25 109.38 126.205 109.606H120.623H120.624Z" fill="black"/>
<path d="M127.884 109.152C127.93 108.714 128.126 108.094 128.368 107.776C128.928 108.154 129.972 108.396 130.819 108.396C131.379 108.396 131.817 108.321 132.12 108.185C132.256 108.018 132.331 107.791 132.331 107.504C132.331 106.974 132.029 106.687 131.106 106.369L130.229 106.052C128.761 105.522 128.05 104.872 128.05 103.722C128.05 102.164 129.245 101.211 131.197 101.211C132.15 101.211 133.027 101.423 133.677 101.801C133.602 102.285 133.39 102.784 133.133 103.132C132.558 102.814 131.862 102.648 131.06 102.648C130.607 102.648 130.229 102.693 129.911 102.799C129.76 102.951 129.684 103.162 129.684 103.435C129.684 103.964 129.956 104.251 130.818 104.554L131.681 104.872C133.239 105.401 133.965 106.082 133.965 107.216C133.965 108.971 132.709 109.818 130.667 109.818C129.517 109.818 128.474 109.561 127.884 109.153L127.884 109.152Z" fill="black"/>
<path d="M70.826 113.921C71.1576 113.921 71.6263 113.99 71.9008 114.081V120.095C71.775 120.141 71.5921 120.164 71.329 120.164C71.2604 120.164 71.146 120.153 70.9974 120.141C70.9974 118.38 70.986 116.756 70.9631 115.27L69.2366 118.014C69.1452 118.037 69.0537 118.049 68.9509 118.049C68.8481 118.049 68.7566 118.037 68.6535 118.014L66.9041 115.259V120.084C66.7668 120.13 66.5725 120.153 66.3323 120.153C66.2638 120.153 66.1494 120.141 66.0007 120.13C65.9894 117.511 65.9664 115.499 65.9322 114.081C66.2179 113.978 66.7325 113.909 67.0871 113.921L68.9622 116.894L70.826 113.921V113.921Z" fill="black"/>
<path d="M73.2044 114.081C73.5245 113.956 73.8561 113.91 74.1877 113.921V120.084C74.0506 120.13 73.8561 120.153 73.6046 120.153C73.5361 120.153 73.4216 120.142 73.273 120.13C73.2616 117.511 73.2387 115.499 73.2044 114.081V114.081Z" fill="black"/>
<path d="M75.2625 119.787C75.2968 119.524 75.4112 119.17 75.5599 118.975C76.0059 119.261 76.7261 119.433 77.3778 119.433C77.8238 119.433 78.1895 119.364 78.4639 119.227C78.6126 119.055 78.6925 118.838 78.6925 118.575C78.6925 118.106 78.4067 117.832 77.6406 117.546L76.9318 117.272C75.8913 116.906 75.4109 116.403 75.4109 115.591C75.4109 114.493 76.2572 113.818 77.629 113.818C78.2694 113.818 78.9097 113.978 79.4014 114.253C79.3328 114.596 79.2184 114.859 79.0584 115.03C78.6239 114.79 78.1094 114.664 77.5262 114.664C77.1717 114.664 76.863 114.71 76.6115 114.79C76.4399 114.939 76.36 115.145 76.36 115.407C76.36 115.865 76.6001 116.151 77.2861 116.414L78.0065 116.688C79.1156 117.088 79.6302 117.58 79.6302 118.403C79.6302 119.627 78.7268 120.267 77.2634 120.267C76.4744 120.267 75.7083 120.073 75.2625 119.787V119.787Z" fill="black"/>
<path d="M81.2997 114.07C81.9287 113.944 82.6146 113.876 83.3464 113.876C84.81 113.876 85.6676 114.539 85.6676 115.682C85.6676 116.642 85.1074 117.226 84.044 117.397L86.0678 119.981C85.7933 120.084 85.3246 120.164 85.0502 120.153L83.0836 117.523H82.2832V120.084C82.1461 120.13 81.9516 120.153 81.7001 120.153C81.6316 120.153 81.5171 120.142 81.3685 120.13C81.3571 117.534 81.3342 115.522 81.2999 114.07H81.2997ZM83.3578 116.768C83.8038 116.768 84.1581 116.711 84.4212 116.585C84.6155 116.368 84.6956 116.128 84.6956 115.705C84.6956 115.053 84.1697 114.676 83.2207 114.676C82.7519 114.676 82.3744 114.71 82.283 114.721V116.768H83.3578Z" fill="black"/>
</svg>
