<svg width="20" height="15" viewBox="0 0 20 15" fill="none" xmlns="http://www.w3.org/2000/svg">
<path d="M1.11111 14.5C0.796296 14.5 0.532593 14.388 0.32 14.164C0.106667 13.9408 0 13.6639 0 13.3333C0 13.0028 0.106667 12.7259 0.32 12.5027C0.532593 12.2787 0.796296 12.1667 1.11111 12.1667H18.8889C19.2037 12.1667 19.4674 12.2787 19.68 12.5027C19.8933 12.7259 20 13.0028 20 13.3333C20 13.6639 19.8933 13.9408 19.68 14.164C19.4674 14.388 19.2037 14.5 18.8889 14.5H1.11111ZM1.11111 8.66667C0.796296 8.66667 0.532593 8.55467 0.32 8.33067C0.106667 8.10744 0 7.83056 0 7.5C0 7.16944 0.106667 6.89217 0.32 6.66817C0.532593 6.44494 0.796296 6.33333 1.11111 6.33333H18.8889C19.2037 6.33333 19.4674 6.44494 19.68 6.66817C19.8933 6.89217 20 7.16944 20 7.5C20 7.83056 19.8933 8.10744 19.68 8.33067C19.4674 8.55467 19.2037 8.66667 18.8889 8.66667H1.11111ZM1.11111 2.83333C0.796296 2.83333 0.532593 2.72172 0.32 2.4985C0.106667 2.2745 0 1.99722 0 1.66667C0 1.33611 0.106667 1.05883 0.32 0.834834C0.532593 0.611611 0.796296 0.5 1.11111 0.5H18.8889C19.2037 0.5 19.4674 0.611611 19.68 0.834834C19.8933 1.05883 20 1.33611 20 1.66667C20 1.99722 19.8933 2.2745 19.68 2.4985C19.4674 2.72172 19.2037 2.83333 18.8889 2.83333H1.11111Z" fill="black"/>
</svg>
