<svg width="13" height="14" viewBox="0 0 13 14" fill="none" xmlns="http://www.w3.org/2000/svg">
<path d="M2.61444 6.12611C3.65444 8.17 5.33 9.83833 7.37389 10.8856L8.96278 9.29667C9.15778 9.10167 9.44667 9.03667 9.69944 9.12333C10.5083 9.39056 11.3822 9.535 12.2778 9.535C12.675 9.535 13 9.86 13 10.2572V12.7778C13 13.175 12.675 13.5 12.2778 13.5C5.49611 13.5 0 8.00389 0 1.22222C0 0.825 0.325 0.5 0.722222 0.5H3.25C3.64722 0.5 3.97222 0.825 3.97222 1.22222C3.97222 2.125 4.11667 2.99167 4.38389 3.80056C4.46333 4.05333 4.40556 4.335 4.20333 4.53722L2.61444 6.12611Z" fill="#9A9A9A"/>
</svg>
