<svg width="17" height="18" viewBox="0 0 17 18" fill="none" xmlns="http://www.w3.org/2000/svg">
<path d="M0.772728 8.22718H4.63636V4.36351C4.63641 4.15858 4.71785 3.96207 4.86277 3.81719L7.95368 0.726246C8.09859 0.581381 8.2951 0.5 8.5 0.5C8.7049 0.5 8.90141 0.581381 9.04632 0.726246L12.1372 3.81719C12.2822 3.96207 12.3636 4.15858 12.3636 4.36351V8.22718H16.2273C16.4322 8.22718 16.6288 8.3086 16.7737 8.45351C16.9186 8.59843 17 8.79498 17 8.99992V16.7273C17 16.9322 16.9186 17.1288 16.7737 17.2737C16.6288 17.4186 16.4322 17.5 16.2273 17.5H0.772728C0.567787 17.5 0.371241 17.4186 0.226326 17.2737C0.0814114 17.1288 0 16.9322 0 16.7273V8.99992C0 8.79498 0.0814114 8.59843 0.226326 8.45351C0.371241 8.3086 0.567787 8.22718 0.772728 8.22718ZM15.4545 9.77265H12.3636V15.9545H15.4545V9.77265ZM10.8182 8.99992V4.68342L8.5 2.36522L6.18182 4.68342V15.9545H7.34091V14.7954C7.34091 14.488 7.46303 14.1932 7.6804 13.9758C7.89777 13.7584 8.19259 13.6363 8.5 13.6363C8.80741 13.6363 9.10223 13.7584 9.3196 13.9758C9.53697 14.1932 9.65909 14.488 9.65909 14.7954V15.9545H10.8182V8.99992ZM1.54545 15.9545H4.63636V9.77265H1.54545V15.9545ZM14.6818 10.5454H13.1364V12.0909H14.6818V10.5454ZM14.6818 13.6363H13.1364V15.1818H14.6818V13.6363ZM2.31818 12.0909H3.86364V10.5454H2.31818V12.0909ZM2.31818 15.1818H3.86364V13.6363H2.31818V15.1818ZM9.65909 5.52261C9.65909 5.29336 9.59111 5.06926 9.46375 4.87865C9.33639 4.68804 9.15536 4.53947 8.94357 4.45174C8.73177 4.36401 8.49871 4.34106 8.27387 4.38578C8.04903 4.4305 7.8425 4.5409 7.6804 4.703C7.5183 4.86511 7.4079 5.07164 7.36318 5.29648C7.31846 5.52133 7.34141 5.75438 7.42914 5.96618C7.51687 6.17798 7.66543 6.35901 7.85604 6.48637C8.04666 6.61373 8.27075 6.68171 8.5 6.68171C8.80741 6.68171 9.10223 6.55959 9.3196 6.34222C9.53697 6.12485 9.65909 5.83002 9.65909 5.52261Z" fill="#9A9A9A"/>
</svg>
