<svg width="21" height="21" viewBox="0 0 21 21" fill="none" xmlns="http://www.w3.org/2000/svg">
<g clip-path="url(#clip0_17_26)">
<path d="M8.3125 5.6875V8.3125H5.6875V5.6875H8.3125ZM9.625 4.375H4.375V9.625H9.625V4.375ZM8.3125 12.6875V15.3125H5.6875V12.6875H8.3125ZM9.625 11.375H4.375V16.625H9.625V11.375ZM15.3125 5.6875V8.3125H12.6875V5.6875H15.3125ZM16.625 4.375H11.375V9.625H16.625V4.375ZM11.375 11.375H12.6875V12.6875H11.375V11.375ZM12.6875 12.6875H14V14H12.6875V12.6875ZM14 11.375H15.3125V12.6875H14V11.375ZM11.375 14H12.6875V15.3125H11.375V14ZM12.6875 15.3125H14V16.625H12.6875V15.3125ZM14 14H15.3125V15.3125H14V14ZM15.3125 12.6875H16.625V14H15.3125V12.6875ZM15.3125 15.3125H16.625V16.625H15.3125V15.3125ZM19.25 6.125H17.5V3.5H14.875V1.75H19.25V6.125ZM19.25 19.25V14.875H17.5V17.5H14.875V19.25H19.25ZM1.75 19.25H6.125V17.5H3.5V14.875H1.75V19.25ZM1.75 1.75V6.125H3.5V3.5H6.125V1.75H1.75Z" fill="white"/>
</g>
<defs>
<clipPath id="clip0_17_26">
<rect width="21" height="21" fill="white"/>
</clipPath>
</defs>
</svg>
