<?xml version="1.0" encoding="UTF-8"?>
<svg id="Layer_1" data-name="Layer 1" xmlns="http://www.w3.org/2000/svg" viewBox="0 0 14 18">
  <defs>
    <style>
      .cls-1 {
        fill: #9a9a9a;
      }
    </style>
  </defs>
  <path class="cls-1" d="m2.72,5.72l2.36,2.37c.41-.39.76-.73,1.02-.98l-2.38-2.39-.29-1.29-2.12-1.29-.58.58-.58.58,1.29,2.12,1.29.29Z"/>
  <path class="cls-1" d="m9.89,9.57l3.49,3.48c.64.64.64,1.69,0,2.33-.64.64-1.69.64-2.33,0l-3.49-3.48,2.33-2.33Z"/>
  <path class="cls-1" d="m12.76,7.51c1.2-1.09,1.4-2.33,1.13-3.37,0-.08-.03-.15-.1-.2l-.24-.2s-.1-.06-.15-.05c-.06,0-.11.03-.14.08l-1.39,1.81c-.04.05-.1.08-.17.08l-.5.04s-.09-.02-.12-.04l-.98-.83s-.07-.08-.07-.13l-.06-.46c0-.05,0-.1.04-.14l1.3-1.77c.06-.08.05-.19-.03-.26l-.32-.25c-.06-.06-.13-.05-.23-.03-.9.18-2.44,1.05-2.83,2.25-.34,1.06-.22,1.81-.22,1.81,0,.6-.2,1.17-.44,1.41L.46,13.77s-.03.02-.04.04c-.56.56-.56,1.47-.02,2.01.54.54,1.46.56,2.03,0,.03-.03.05-.05.07-.08l6.54-7.07c.81-.72,2.4.05,3.71-1.15Z"/>
</svg>