<?xml version="1.0" encoding="utf-8"?>
<!-- Generator: Adobe Illustrator 27.6.1, SVG Export Plug-In . SVG Version: 6.00 Build 0)  -->
<svg version="1.1" id="Layer_1" xmlns="http://www.w3.org/2000/svg" xmlns:xlink="http://www.w3.org/1999/xlink" x="0px" y="0px"
	 viewBox="0 0 15.9 15.9" style="enable-background:new 0 0 15.9 15.9;" xml:space="preserve">
<g>
	<path d="M11.6,8.3c-1.9,0-3.4,1.5-3.4,3.4S9.7,15,11.6,15c1.9,0,3.4-1.5,3.4-3.4l0,0C14.9,9.8,13.4,8.3,11.6,8.3z M12.2,12
		c-0.1,0-0.2,0-0.3-0.1l-1.3,1.3c-0.1,0.1-0.2,0.1-0.3,0.1c-0.1,0-0.2,0-0.3-0.1c-0.1-0.2-0.1-0.4,0-0.6l1.3-1.3
		c0-0.1-0.1-0.2-0.1-0.3c-0.1-0.6,0.4-1.1,0.9-1.1c0,0,0.1,0,0.1,0c0.1,0,0.2,0,0.3,0.1c0.1,0,0.1,0.1,0,0.1L12,10.7
		c0,0-0.1,0.1,0,0.1c0,0,0,0,0,0l0.4,0.4c0,0,0.1,0.1,0.2,0c0,0,0,0,0,0l0.6-0.6c0,0,0.1,0,0.1,0c0,0.1,0.1,0.2,0.1,0.3
		C13.3,11.5,12.8,12,12.2,12C12.2,12,12.2,12,12.2,12z"/>
	<circle cx="6.6" cy="4.6" r="3.8"/>
	<path d="M7.7,15C8.3,15,8,14.5,8,14.5l0,0c-0.7-0.8-1-1.8-1-2.9c0-0.7,0.1-1.3,0.4-1.9c0,0,0-0.1,0.1-0.1c0.2-0.4-0.2-0.4-0.2-0.4
		l0,0c-0.2,0-0.4,0-0.6,0c-2.9,0-5.3,2.1-5.7,5c0,0.3,0.1,0.8,1,0.8L7.7,15C7.7,15,7.7,15,7.7,15z"/>
</g>
</svg>
