<?xml version="1.0" encoding="UTF-8"?>
<svg id="Layer_1" data-name="Layer 1" xmlns="http://www.w3.org/2000/svg" viewBox="0 0 28 28">
  <defs>
    <style>
      .cls-1 {
        fill: #008c43;
      }
    </style>
  </defs>
  <path class="cls-1" d="m13.73,27.97c-.39-.11-.76-.44-.92-.85-.13-.31-.13-.91,0-1.22.09-.23.53-.73.63-.73.03,0,.05-.37.05-1.04v-1.04l-.3.03c-1.48.13-2.57.39-3.42.82l-.3.15.13.15c.4.48.49,1.2.21,1.75-.52,1.04-1.86,1.03-2.34-.02-.37-.8-.07-1.72.82-2.46.88-.74,2.31-1.27,4.05-1.51l.27-.04v-2.66h2.82v2.66l.27.04c2.47.34,4.25,1.27,4.87,2.53.13.27.16.38.16.75,0,.33-.03.49-.12.67-.13.28-.43.59-.69.71-.25.12-.76.11-1.04-.02-.27-.12-.67-.6-.74-.89-.13-.53-.02-1.15.29-1.47.07-.07.13-.15.13-.18s-.12-.1-.27-.17c-.93-.45-2.06-.72-3.42-.83l-.27-.02v2.05l.22.18c.4.33.59.8.54,1.34-.08.89-.86,1.51-1.63,1.31h0Zm-6.61-9.6c-.51-.1-.95-.48-1.18-1.01-.12-.29-.12-.32-.12-2.26v-1.96s.75,0,.75,0h.75l.06.48c.11.81.31,1.37.65,1.78.29.35.38.37.88.24.61-.16,2.06-.39,2.99-.47.43-.04,1.38-.07,2.12-.07s1.68.03,2.12.07c.93.08,2.39.31,2.99.47.43.11.44.11.63,0,.5-.29.82-1.02.93-2.08l.04-.36h1.56l-.02,1.93c-.02,1.88-.02,1.94-.14,2.22-.23.56-.65.91-1.21,1.01-.4.07-13.42.07-13.8,0h0Zm1.55-3.74c-.05-.27-.92-11.08-.92-11.41,0-.83.31-1.6.88-2.24.46-.5.77-.71,1.34-.87C10.35,0,10.56,0,14.01,0c3.06,0,3.69.02,3.97.09,1,.26,1.87,1.18,2.18,2.28.17.6.15.91-.36,6.72-.27,3.1-.5,5.64-.51,5.65,0,0-.24-.03-.51-.09-1.15-.26-3.2-.46-4.78-.46-1.54,0-3.59.2-4.74.46-.28.07-.52.12-.53.12-.02,0-.03-.06-.04-.13h0Zm-3.92-2.26c-.21-.13-.34-.31-.4-.53-.07-.3,0-.55.25-.81.96-1.03,2.57-.52,2.91.93.04.18.08.37.08.41,0,.1-2.69.11-2.85,0h0Zm15.7-.09c0-.26.18-.74.37-1.02.39-.57,1.06-.87,1.68-.74.91.19,1.43.94,1.08,1.57-.18.33-.31.36-1.8.36h-1.33v-.16s0,0,0,0Z"/>
</svg>