<svg width="19" height="20" viewBox="0 0 19 20" fill="none" xmlns="http://www.w3.org/2000/svg">
<path d="M13.7168 12.3731H12.8819L12.586 12.0878C13.6217 10.883 14.2452 9.31893 14.2452 7.61747C14.2452 3.82354 11.1699 0.74823 7.37595 0.74823C3.58202 0.74823 0.506714 3.82354 0.506714 7.61747C0.506714 11.4114 3.58202 14.4867 7.37595 14.4867C9.07741 14.4867 10.6415 13.8632 11.8462 12.8275L12.1316 13.1234V13.9583L17.4156 19.2318L18.9902 17.6571L13.7168 12.3731ZM7.37595 12.3731C4.74451 12.3731 2.62033 10.2489 2.62033 7.61747C2.62033 4.98602 4.74451 2.86184 7.37595 2.86184C10.0074 2.86184 12.1316 4.98602 12.1316 7.61747C12.1316 10.2489 10.0074 12.3731 7.37595 12.3731Z" fill="#9A9A9A"/>
</svg>
