<svg width="16" height="16" viewBox="0 0 16 16" fill="none" xmlns="http://www.w3.org/2000/svg">
<g clip-path="url(#clip0_73_1142)">
<path d="M14.7352 15.9999H1.26447C1.04866 16.0004 0.836316 15.9457 0.64773 15.8407C0.459144 15.7358 0.300626 15.5843 0.187333 15.4006C0.0740396 15.2169 0.00975958 15.0073 0.000639028 14.7916C-0.00848152 14.576 0.0378624 14.3617 0.135239 14.1691L6.87062 0.698324C6.97522 0.488314 7.13631 0.311633 7.33579 0.188133C7.53527 0.0646323 7.76524 -0.000793457 7.99986 -0.000793457C8.23447 -0.000793457 8.46444 0.0646323 8.66392 0.188133C8.8634 0.311633 9.02449 0.488314 9.12909 0.698324L15.8645 14.1691C15.9618 14.3617 16.0082 14.576 15.9991 14.7916C15.99 15.0073 15.9257 15.2169 15.8124 15.4006C15.6991 15.5843 15.5406 15.7358 15.352 15.8407C15.1634 15.9457 14.951 16.0004 14.7352 15.9999ZM7.99986 1.23063C7.99344 1.2301 7.98702 1.2316 7.9815 1.23491C7.97598 1.23822 7.97164 1.24318 7.96909 1.24909L1.23062 14.7199C1.23062 14.7199 1.23062 14.7199 1.23062 14.7506C1.23311 14.7557 1.2371 14.7599 1.24205 14.7627C1.247 14.7654 1.25268 14.7666 1.25832 14.766H14.7352C14.7409 14.7666 14.7466 14.7654 14.7515 14.7627C14.7565 14.7599 14.7604 14.7557 14.7629 14.7506C14.7629 14.7506 14.7629 14.726 14.7629 14.7199L8.03062 1.24909C8.02807 1.24318 8.02373 1.23822 8.01821 1.23491C8.01269 1.2316 8.00627 1.2301 7.99986 1.23063Z" fill="#9A9A9A"/>
<path d="M8.87706 10.3231H7.12629L7.02783 6.55078H8.97245L8.87706 10.3231Z" fill="#9A9A9A"/>
<path d="M8.04937 11.1661H7.95091C7.44111 11.1661 7.02783 11.5794 7.02783 12.0892V12.1877C7.02783 12.6975 7.44111 13.1108 7.95091 13.1108H8.04937C8.55917 13.1108 8.97245 12.6975 8.97245 12.1877V12.0892C8.97245 11.5794 8.55917 11.1661 8.04937 11.1661Z" fill="#9A9A9A"/>
</g>
<defs>
<clipPath id="clip0_73_1142">
<rect width="16" height="16" fill="white"/>
</clipPath>
</defs>
</svg>
