<svg width="146" height="146" viewBox="0 0 146 146" fill="none" xmlns="http://www.w3.org/2000/svg">
<path fill-rule="evenodd" clip-rule="evenodd" d="M73.0001 146C58.562 146 44.4482 141.719 32.4434 133.697C20.4386 125.676 11.0821 114.275 5.5569 100.936C0.0317053 87.5969 -1.41404 72.919 1.40268 58.7584C4.2194 44.5978 11.1721 31.5905 21.3813 21.3813C31.5905 11.172 44.5978 4.21944 58.7584 1.40272C72.9191 -1.414 87.597 0.0315956 100.936 5.55679C114.275 11.082 125.676 20.4386 133.697 32.4434C141.719 44.4482 146 58.562 146 73C146 92.3608 138.309 110.929 124.619 124.619C110.929 138.309 92.3609 146 73.0001 146ZM31.6674 89.4616C30.0976 87.8744 29.2171 85.7322 29.2171 83.4999C29.2171 81.2676 30.0976 79.1253 31.6674 77.5382L35.9648 73.2653C36.6956 72.5279 37.567 71.9448 38.5275 71.5506C39.488 71.1565 40.518 70.9594 41.5561 70.971C42.5942 70.9825 43.6194 71.2025 44.5709 71.618C45.5223 72.0334 46.3806 72.6358 47.0948 73.3894L54.6868 81.2661C55.0488 81.648 55.4848 81.9522 55.9682 82.1601C56.4516 82.368 56.9723 82.4752 57.4986 82.4752C58.0248 82.4752 58.5455 82.368 59.0289 82.1601C59.5123 81.9522 59.9482 81.648 60.3102 81.2661L99.0002 41.3837C99.7196 40.6248 100.585 40.0193 101.544 39.6035C102.504 39.1877 103.537 38.9702 104.583 38.964C105.628 38.9579 106.665 39.1632 107.629 39.5678C108.593 39.9723 109.465 40.5677 110.193 41.3181L114.367 45.5374C115.898 47.118 116.755 49.2325 116.755 51.4334C116.755 53.6342 115.898 55.7488 114.367 57.3294L63.0015 109.527C62.2847 110.269 61.427 110.86 60.4786 111.266C59.5302 111.673 58.5102 111.885 57.4785 111.892C56.4468 111.899 55.4242 111.7 54.4706 111.306C53.5169 110.912 52.6515 110.332 51.9249 109.6L31.6674 89.4616Z" fill="#008C43"/>
</svg>
