<svg width="20" height="19" viewBox="0 0 20 19" fill="none" xmlns="http://www.w3.org/2000/svg">
<g clip-path="url(#clip0_60_3)">
<path d="M13.098 16.72H-0.0933838V12.388C0.684079 12.388 1.4297 12.0838 1.97945 11.5422C2.5292 11.0005 2.83804 10.266 2.83804 9.50003C2.83804 8.73408 2.5292 7.99951 1.97945 7.4579C1.4297 6.9163 0.684079 6.61203 -0.0933838 6.61203V2.28003H13.098V5.89003H14.5638V2.28003H20.4266V6.61203C19.6492 6.61203 18.9035 6.9163 18.3538 7.4579C17.804 7.99951 17.4952 8.73408 17.4952 9.50003C17.4952 10.266 17.804 11.0005 18.3538 11.5422C18.9035 12.0838 19.6492 12.388 20.4266 12.388V16.72H14.5638V13.11H13.098V16.72ZM13.098 7.33403V11.666H14.5638V7.33403H13.098Z" fill="black"/>
</g>
<defs>
<clipPath id="clip0_60_3">
<rect width="19" height="19" fill="white" transform="translate(0.666626)"/>
</clipPath>
</defs>
</svg>
