<svg width="390" height="237" viewBox="0 0 390 237" fill="none" xmlns="http://www.w3.org/2000/svg">
<g clip-path="url(#clip0_17_3)">
<path d="M0 0H390V207C390 223.569 376.569 237 360 237H30C13.4315 237 0 223.569 0 207V0Z" fill="url(#paint0_linear_17_3)"/>
<path opacity="0.2" d="M400.143 24.9155C372.491 -3.59346 343.914 -31.1939 315.95 -59.4218C311.122 -64.2708 307.939 -64.1603 303.142 -59.28C276.353 -32.105 249.642 -4.84963 222.226 21.6829C192.238 50.6951 177.706 85.2452 180.294 127.202C182.049 155.806 191.737 181.005 211.473 201.481C241.038 232.141 271.588 261.827 301.529 292.126C306.138 296.801 308.551 295.311 311.906 290.965C331.093 266.126 329.275 230.853 306.984 207.694C292.312 192.443 277.232 177.568 262.152 162.726C249.989 150.738 243.781 136.146 243.06 119.326C242.793 113.316 244.203 107.245 245.097 99.0065C249.564 102.898 252.183 104.922 254.487 107.229C292.579 145.294 330.624 183.392 368.669 221.487C372.039 224.86 375.095 228.971 380.159 223.605C390.379 212.778 401.791 202.878 410.805 191.142C449.414 140.854 444.914 71.0459 400.146 24.9168L400.143 24.9155ZM371.081 132.097C367.601 129.367 365.657 128.127 364.058 126.543C339.776 102.426 315.667 78.1688 291.212 54.2251C286.118 49.2356 285.647 45.6579 291.26 40.9972C295.868 37.1848 300.022 32.7913 304.208 28.492C307.296 25.3221 310.04 24.6482 313.457 28.1306C328.615 43.6174 344.635 58.335 358.916 74.5898C372.805 90.4054 376.331 109.533 371.081 132.096V132.097Z" fill="white"/>
</g>
<defs>
<linearGradient id="paint0_linear_17_3" x1="0" y1="0" x2="360.651" y2="236.975" gradientUnits="userSpaceOnUse">
<stop stop-color="#008C43"/>
<stop offset="1" stop-color="#20CF74"/>
</linearGradient>
<clipPath id="clip0_17_3">
<path d="M0 0H390V207C390 223.569 376.569 237 360 237H30C13.4315 237 0 223.569 0 207V0Z" fill="white"/>
</clipPath>
</defs>
</svg>
