<svg width="136" height="266" viewBox="0 0 136 266" fill="none" xmlns="http://www.w3.org/2000/svg">
<g filter="url(#filter0_d_62_168)">
<path d="M-266.626 234.388C-260.907 267.705 -233.912 310.033 -198.824 294.424C-172.301 282.626 -203.853 256.147 -173.257 231.517C-142.661 206.886 -97.0412 203.361 -69.8818 228.458C-49.882 246.938 -73.5821 273.105 -56.818 293.987C-18.2844 341.984 117.546 302.647 111.141 242.953C106.896 203.384 51.6577 208.52 27.7227 175.707C-1.35886 135.838 32.4624 88.1674 -8.02504 57.1475C-38.6436 33.6888 -72.4413 12.7628 -109.073 31.87C-156.648 56.6848 -40.9284 121.781 -85.3208 151.014C-105.945 164.595 -123.572 161.949 -148.68 163.645C-179.372 165.719 -198.266 144.168 -226.337 156.416C-260.36 171.26 -272.15 202.198 -266.626 234.388Z" fill="url(#paint0_linear_62_168)"/>
</g>
<defs>
<filter id="filter0_d_62_168" x="-291.928" y="0.409058" width="427.289" height="339.033" filterUnits="userSpaceOnUse" color-interpolation-filters="sRGB">
<feFlood flood-opacity="0" result="BackgroundImageFix"/>
<feColorMatrix in="SourceAlpha" type="matrix" values="0 0 0 0 0 0 0 0 0 0 0 0 0 0 0 0 0 0 127 0" result="hardAlpha"/>
<feOffset/>
<feGaussianBlur stdDeviation="12"/>
<feComposite in2="hardAlpha" operator="out"/>
<feColorMatrix type="matrix" values="0 0 0 0 0 0 0 0 0 0 0 0 0 0 0 0 0 0 0.25 0"/>
<feBlend mode="normal" in2="BackgroundImageFix" result="effect1_dropShadow_62_168"/>
<feBlend mode="normal" in="SourceGraphic" in2="effect1_dropShadow_62_168" result="shape"/>
</filter>
<linearGradient id="paint0_linear_62_168" x1="-183.693" y1="162.214" x2="-32.7631" y2="383.108" gradientUnits="userSpaceOnUse">
<stop offset="0.139423" stop-color="#008C43"/>
<stop offset="1" stop-color="#20CF74"/>
</linearGradient>
</defs>
</svg>
