<svg width="210" height="237" viewBox="0 0 210 237" fill="none" xmlns="http://www.w3.org/2000/svg">
<path opacity="0.2" d="M220.143 24.9155C192.491 -3.59346 163.914 -31.1939 135.95 -59.4218C131.122 -64.2708 127.939 -64.1603 123.142 -59.28C96.3532 -32.105 69.6417 -4.84963 42.2256 21.6829C12.2381 50.6951 -2.29358 85.2452 0.294072 127.202C2.04926 155.806 11.7367 181.005 31.4725 201.481C61.0375 232.141 91.5879 261.827 121.529 292.126C126.138 296.801 128.551 295.311 131.906 290.965C151.093 266.126 149.275 230.853 126.984 207.694C112.312 192.443 97.2321 177.568 82.1525 162.726C69.989 150.738 63.7806 136.146 63.0597 119.326C62.7927 113.316 64.2031 107.245 65.097 99.0065C69.564 102.898 72.183 104.922 74.4873 107.229C112.579 145.294 150.624 183.392 188.669 221.487C192.039 224.86 195.095 228.971 200.159 223.605C210.379 212.778 221.791 202.878 230.805 191.142C269.414 140.854 264.914 71.0459 220.146 24.9168L220.143 24.9155ZM191.081 132.097C187.601 129.367 185.657 128.127 184.058 126.543C159.776 102.426 135.667 78.1688 111.212 54.2251C106.118 49.2356 105.647 45.6579 111.26 40.9972C115.868 37.1848 120.022 32.7913 124.208 28.492C127.296 25.3221 130.04 24.6482 133.457 28.1306C148.615 43.6174 164.635 58.335 178.916 74.5898C192.805 90.4054 196.331 109.533 191.081 132.096V132.097Z" fill="white"/>
</svg>
